<svg id="Layer_1" data-name="Layer 1" xmlns="http://www.w3.org/2000/svg" xmlns:xlink="http://www.w3.org/1999/xlink" viewBox="0 0 1920 1080.92"><defs><style>.cls-1,.cls-28,.cls-3,.cls-4,.cls-6{fill:none;}.cls-2{clip-path:url(#clip-path);}.cls-28,.cls-3{stroke:#fff;}.cls-28,.cls-3,.cls-4,.cls-6{stroke-miterlimit:10;}.cls-4{stroke:#f7931e;}.cls-28,.cls-4{stroke-width:2px;}.cls-13,.cls-16,.cls-19,.cls-21,.cls-25,.cls-5,.cls-7{fill:#fbb03b;}.cls-6{stroke:#fbb03b;}.cls-7{font-size:26.09px;}.cls-13,.cls-16,.cls-19,.cls-21,.cls-7{font-family:ArialMT, Arial;}.cls-10,.cls-12,.cls-8{font-size:19.57px;}.cls-10,.cls-12,.cls-14,.cls-17,.cls-20,.cls-22,.cls-23,.cls-8{fill:#fff;}.cls-9{letter-spacing:-0.06em;}.cls-10{letter-spacing:-0.11em;}.cls-11{letter-spacing:0em;}.cls-12{letter-spacing:-0.04em;}.cls-13{font-size:21.61px;}.cls-14{font-size:16.21px;}.cls-15{letter-spacing:-0.06em;}.cls-16{font-size:17.05px;}.cls-17{font-size:12.79px;}.cls-18{letter-spacing:-0.06em;}.cls-19{font-size:20.3px;}.cls-20{font-size:15.22px;}.cls-21{font-size:19.71px;}.cls-22{font-size:14.78px;}.cls-23{font-size:80.6px;font-family:Arial-Black, Arial;font-weight:800;}.cls-24{letter-spacing:-0.02em;}.cls-25{font-size:53.73px;letter-spacing:-0.01em;}.cls-26{letter-spacing:-0.02em;}.cls-27{letter-spacing:0.01em;}</style><clipPath id="clip-path"><rect class="cls-1" width="1920" height="1080"/></clipPath></defs><g class="cls-2"><rect width="1920" height="1080"/><path class="cls-3" d="M372.5.5c-57,15-136.11,57.15-168.42,108.78-9.19,14.69-15.51,31.66-15,49s8.76,34.88,23.47,44c25.92,16.11,70.94,7.3,99.8,5.16,40.87-3,81.49-8.68,121.93-15.21,79.73-12.89,158.91-29.61,239.28-38.16,77.71-8.25,159.82-11.59,238.73.12,56.26,8.36,110.9,24.36,161.14,51.67,23.47,12.76,47.58,30.81,52.17,57.12,14.11,80.93-113.17,95.39-165.87,97.06-66.16,2.1-132.68-9-198.68-1.8A681.8,681.8,0,0,0,609,392.88c-45.21,15.91-99.27,35.59-135.37,67.88-12.77,11.41-21.56,28.82-18.11,45.59,2.44,11.8,10.52,21.73,19.83,29.38,57.6,47.31,162.28,43.89,231.79,39.09,88.27-6.1,174.71-26.51,261.21-44q130.11-26.26,261.95-42.58,116.16-14.38,233.1-20.95c64.37-3.61,130.71-5,194.5,3.72,54.62,7.46,107.37,22.32,155.41,49.49,31,17.51,62,45.22,61.54,80.79-.42,34.52-30.18,61-59.33,79.5-38.07,24.14-78.8,42.6-121.2,56.74-97.4,32.48-203.68,42.22-307.15,45.87-72.46,2.56-145.59,2.71-218.06,7-76.07,4.5-151.41,13.57-224.49,34.8-30.7,8.92-65.5,25.26-70.7,56.81-3.82,23.18,11.3,46.24,31.25,58.66S949,957,972.33,960.06c186.85,24.44,376.24,10.3,564.66,8.15,59.43-.68,125.45,2.42,167.64,44.27,24.55,24.35,44.86,49.17,15.87,68"/><ellipse class="cls-4" cx="1728" cy="1043" rx="22" ry="11"/><ellipse class="cls-5" cx="1728" cy="1043" rx="12" ry="6"/><ellipse class="cls-4" cx="1122" cy="972" rx="22" ry="11"/><ellipse class="cls-5" cx="1122" cy="972" rx="12" ry="6"/><ellipse class="cls-4" cx="1407" cy="972" rx="22" ry="11"/><ellipse class="cls-5" cx="1407" cy="972" rx="12" ry="6"/><ellipse class="cls-4" cx="1167" cy="792" rx="22" ry="11"/><ellipse class="cls-5" cx="1167" cy="792" rx="12" ry="6"/><ellipse class="cls-4" cx="873" cy="905" rx="22" ry="11"/><ellipse class="cls-5" cx="873" cy="905" rx="12" ry="6"/><ellipse class="cls-4" cx="1518" cy="776" rx="22" ry="11"/><ellipse class="cls-5" cx="1518" cy="776" rx="12" ry="6"/><ellipse class="cls-4" cx="1787" cy="695" rx="22" ry="11"/><ellipse class="cls-5" cx="1787" cy="695" rx="12" ry="6"/><ellipse class="cls-4" cx="1765" cy="498" rx="22" ry="11"/><ellipse class="cls-5" cx="1765" cy="498" rx="12" ry="6"/><ellipse class="cls-4" cx="1463" cy="467" rx="22" ry="11"/><ellipse class="cls-5" cx="1463" cy="467" rx="12" ry="6"/><ellipse class="cls-4" cx="1134" cy="500" rx="22" ry="11"/><ellipse class="cls-5" cx="1134" cy="500" rx="12" ry="6"/><ellipse class="cls-4" cx="827" cy="560" rx="22" ry="11"/><ellipse class="cls-5" cx="827" cy="560" rx="12" ry="6"/><ellipse class="cls-4" cx="530" cy="566" rx="22" ry="11"/><ellipse class="cls-5" cx="530" cy="566" rx="12" ry="6"/><ellipse class="cls-4" cx="578" cy="404" rx="22" ry="11"/><ellipse class="cls-5" cx="578" cy="404" rx="12" ry="6"/><ellipse class="cls-4" cx="793" cy="357" rx="22" ry="11"/><ellipse class="cls-5" cx="793" cy="357" rx="12" ry="6"/><ellipse class="cls-4" cx="1024" cy="352" rx="22" ry="11"/><ellipse class="cls-5" cx="1024" cy="352" rx="12" ry="6"/><ellipse class="cls-4" cx="1057" cy="199" rx="22" ry="11"/><ellipse class="cls-5" cx="1057" cy="199" rx="12" ry="6"/><ellipse class="cls-4" cx="805" cy="147" rx="22" ry="11"/><ellipse class="cls-5" cx="805" cy="147" rx="12" ry="6"/><ellipse class="cls-4" cx="553" cy="174" rx="22" ry="11"/><ellipse class="cls-5" cx="553" cy="174" rx="12" ry="6"/><ellipse class="cls-4" cx="316" cy="205" rx="22" ry="11"/><ellipse class="cls-5" cx="316" cy="205" rx="12" ry="6"/><ellipse class="cls-4" cx="202" cy="114" rx="22" ry="11"/><ellipse class="cls-5" cx="202" cy="114" rx="12" ry="6"/><line class="cls-6" x1="529.5" y1="533.5" x2="529.5" y2="563"/><line class="cls-6" x1="826.5" y1="508.5" x2="826.5" y2="558"/><line class="cls-6" x1="1134.5" y1="453.5" x2="1134.5" y2="503"/><line class="cls-6" x1="1461.5" y1="414.5" x2="1461.5" y2="464"/><line class="cls-6" x1="1764.5" y1="445.5" x2="1764.5" y2="495"/><line class="cls-6" x1="1786.5" y1="643.5" x2="1786.5" y2="693"/><line class="cls-6" x1="1165.5" y1="741.5" x2="1165.5" y2="791"/><line class="cls-6" x1="1518.5" y1="726.5" x2="1518.5" y2="776"/><line class="cls-6" x1="1406.5" y1="933.5" x2="1406.5" y2="974"/><line class="cls-6" x1="1727.5" y1="993.5" x2="1727.5" y2="1043"/><line class="cls-6" x1="1121.5" y1="940.5" x2="1121.5" y2="975"/><line class="cls-6" x1="872.5" y1="855.5" x2="872.5" y2="905"/><line class="cls-6" x1="1023.5" y1="312.5" x2="1023.5" y2="349"/><line class="cls-6" x1="792.5" y1="304.5" x2="792.5" y2="354"/><line class="cls-6" x1="1057.5" y1="152.5" x2="1057.5" y2="202"/><line class="cls-6" x1="804.5" y1="96.5" x2="804.5" y2="146"/><line class="cls-6" x1="552.5" y1="123.5" x2="552.5" y2="173"/><line class="cls-6" x1="315.5" y1="153.5" x2="315.5" y2="203"/><line class="cls-6" x1="201.5" y1="79.5" x2="201.5" y2="115"/><line class="cls-6" x1="577.5" y1="349.5" x2="577.5" y2="399"/><text class="cls-7" transform="translate(1400.23 868.39)">Q3,2020<tspan class="cls-8"><tspan x="0" y="27.39">System</tspan><tspan class="cls-9" x="65.23" y="27.39"> </tspan><tspan x="69.59" y="27.39">Architecture</tspan><tspan x="0" y="51.89">Research</tspan></tspan></text><text class="cls-7" transform="translate(1715.62 923.96)">Q2,2020<tspan class="cls-8"><tspan x="0" y="27.39">Market</tspan><tspan x="0" y="54.78">Research</tspan></tspan></text><text class="cls-7" transform="translate(1118.04 874.98)">Q2,2021<tspan class="cls-8"><tspan x="0" y="27.39">Ecosystem</tspan><tspan x="0" y="51.89">Development</tspan></tspan></text><text class="cls-7" transform="translate(777.96 785.98)">Q3,2021<tspan class="cls-8"><tspan x="26.14" y="27.39">Contract</tspan><tspan x="-4.32" y="54.78">Deployment</tspan></tspan></text><text class="cls-7" transform="translate(1160.04 672.98)">Q3,2021<tspan class="cls-8"><tspan x="0" y="27.39">White Paper V1.0</tspan><tspan x="0" y="54.78">Release</tspan></tspan></text><text class="cls-7" transform="translate(1512.04 655.98)">Q3,2021<tspan class="cls-8"><tspan x="0" y="27.39">Alpha</tspan></tspan><tspan class="cls-10"><tspan x="0" y="54.78">T</tspan><tspan class="cls-11" x="9.78" y="54.78">esting</tspan></tspan></text><text class="cls-7" transform="translate(1691.96 574.98)">Q4,2021<tspan class="cls-8"><tspan x="4.39" y="27.39">ICO Phase</tspan><tspan x="54.41" y="54.78">Initial</tspan></tspan></text><text class="cls-7" transform="translate(1759.04 375.98)">Q4,2021<tspan class="cls-12"><tspan x="0" y="27.39">W</tspan><tspan class="cls-11" x="17.74" y="27.39">allets</tspan></tspan><tspan class="cls-8"><tspan x="0" y="54.78">beta</tspan></tspan></text><text class="cls-7" transform="translate(817.04 438.98)">Q2,2022<tspan class="cls-8"><tspan x="0" y="27.39">ICO Phase</tspan></tspan><tspan class="cls-10"><tspan x="0" y="54.78">T</tspan><tspan class="cls-11" x="9.78" y="54.78">arget</tspan></tspan></text><text class="cls-7" transform="translate(483.96 304.98)">Q3,2022<tspan class="cls-8"><tspan x="42.44" y="27.39">Github</tspan></tspan></text><text class="cls-7" transform="translate(1451.04 346.98)">Q1,2022<tspan class="cls-10"><tspan x="0" y="27.39">T</tspan><tspan class="cls-11" x="9.78" y="27.39">echnical</tspan></tspan><tspan class="cls-8"><tspan x="0" y="54.78">Documentation</tspan></tspan></text><text class="cls-7" transform="translate(524.04 467.98)">Q3,2022<tspan class="cls-8"><tspan x="0" y="27.39">Uniswap Contract</tspan><tspan x="0" y="54.78">Deployment</tspan></tspan></text><text class="cls-7" transform="translate(1127.04 383.98)">Q2,2022<tspan class="cls-8"><tspan x="0" y="27.39">Exchange</tspan><tspan x="0" y="54.78">Listing</tspan></tspan></text><text class="cls-13" transform="translate(732.35 224.65)">Q4,2022<tspan class="cls-14"><tspan x="-69.35" y="22.69">Deployment of DCXa</tspan><tspan x="-73.87" y="45.39">Protocol on Ethereum</tspan><tspan x="0.89" y="68.08">and Solana</tspan></tspan></text><text class="cls-13" transform="translate(962.35 256.65)">Q4,2022<tspan class="cls-14"><tspan x="-89.17" y="22.69">Public</tspan><tspan class="cls-15" x="-45.02" y="22.69"> </tspan><tspan x="-41.41" y="22.69">APIs for payment</tspan><tspan x="-70.25" y="45.39">gateways, merchants</tspan></tspan></text><text class="cls-13" transform="translate(1054.27 70.65)">Q4,2022<tspan class="cls-14"><tspan x="0" y="22.69">Frontend</tspan><tspan class="cls-15" x="64.88" y="22.69"> </tspan><tspan x="68.49" y="22.69">App for</tspan><tspan x="0" y="45.39">Consumers using</tspan><tspan x="0" y="68.08">Public</tspan><tspan class="cls-15" x="44.15" y="68.08"> </tspan><tspan x="47.76" y="68.08">API</tspan></tspan></text><text class="cls-13" transform="translate(547.27 64.65)">Q3,2023<tspan class="cls-14"><tspan x="0" y="22.69">Online Swiss</tspan><tspan x="0" y="45.39">Bank</tspan><tspan class="cls-15" x="36.95" y="45.39"> </tspan><tspan x="40.56" y="45.39">Accounts</tspan></tspan></text><text class="cls-16" transform="translate(142.04 31.04)">Q4,2023<tspan class="cls-17"><tspan x="-22.02" y="17.9">Start of Staking</tspan><tspan x="-36.25" y="35.81">Pension</tspan><tspan class="cls-18" x="9.97" y="35.81"> </tspan><tspan x="12.81" y="35.81">Accounts</tspan></tspan></text><text class="cls-19" transform="translate(276.54 100.1)">Q3,2023<tspan class="cls-20"><tspan x="0" y="21.31">DCXa Native Chain Deployment</tspan><tspan x="0" y="42.63">&amp; DCXa Coin Development</tspan></tspan></text><text class="cls-21" transform="translate(798.61 42.07)">Q1,2023<tspan class="cls-22"><tspan x="0" y="20.69">Crypto</tspan><tspan x="0" y="41.39">Cards</tspan></tspan></text><text class="cls-23" transform="translate(154.74 866.6)">P<tspan class="cls-24" x="58.21" y="0">R</tspan><tspan x="119.52" y="0">OJECT</tspan><tspan class="cls-25"><tspan x="58.8" y="68.81">R</tspan><tspan class="cls-26" x="100.21" y="68.81">O</tspan><tspan class="cls-27" x="143.67" y="68.81">ADMAP</tspan></tspan></text><rect class="cls-28" x="106" y="763.08" width="517" height="218.84" rx="37.79"/></g></svg>