<?xml version="1.0" encoding="UTF-8"?>
<!DOCTYPE svg PUBLIC "-//W3C//DTD SVG 1.1//EN" "http://www.w3.org/Graphics/SVG/1.1/DTD/svg11.dtd">
<!-- Creator: CorelDRAW 2021 (64-Bit) -->
<svg xmlns="http://www.w3.org/2000/svg" xml:space="preserve" width="267.109mm" height="222.155mm" version="1.1" style="shape-rendering:geometricPrecision; text-rendering:geometricPrecision; image-rendering:optimizeQuality; fill-rule:evenodd; clip-rule:evenodd"
viewBox="0 0 26710.74 22215.42"
 xmlns:xlink="http://www.w3.org/1999/xlink"
 xmlns:xodm="http://www.corel.com/coreldraw/odm/2003">
 <defs>
  <style type="text/css">
   <![CDATA[
    .fil1 {fill:#037971;fill-rule:nonzero}
    .fil3 {fill:#08728F;fill-rule:nonzero}
    .fil2 {fill:#444053;fill-rule:nonzero}
    .fil4 {fill:#4FD8FE;fill-rule:nonzero}
    .fil9 {fill:#5F5570;fill-rule:nonzero}
    .fil8 {fill:#8E6F7F;fill-rule:nonzero}
    .fil14 {fill:#A8A8A8;fill-rule:nonzero}
    .fil11 {fill:#BC8487;fill-rule:nonzero}
    .fil5 {fill:#E6E8EC;fill-rule:nonzero}
    .fil10 {fill:#EAEAF2;fill-rule:nonzero}
    .fil12 {fill:#FFC4D0;fill-rule:nonzero}
    .fil13 {fill:#FFD037;fill-rule:nonzero}
    .fil6 {fill:black;fill-rule:nonzero;fill-opacity:0.101961}
    .fil0 {fill:#4FD8FE;fill-rule:nonzero;fill-opacity:0.101961}
    .fil15 {fill:black;fill-rule:nonzero;fill-opacity:0.200000}
    .fil7 {fill:url(#id0);fill-rule:nonzero}
   ]]>
  </style>
  <linearGradient id="id0" gradientUnits="userSpaceOnUse" x1="10584.05" y1="16102.4" x2="15835.5" y2="16102.4">
   <stop offset="0" style="stop-opacity:0.25098; stop-color:gray"/>
   <stop offset="0.541176" style="stop-opacity:0.121569; stop-color:gray"/>
   <stop offset="1" style="stop-opacity:0.101961; stop-color:gray"/>
  </linearGradient>
 </defs>
 <g id="Layer_x0020_1">
  <metadata id="CorelCorpID_0Corel-Layer"/>
  <path class="fil0" d="M15519.18 2947.5c-1712.37,-59.53 -3343.26,-612.25 -4900.59,-1217.07 -1557.32,-604.83 -3099.85,-1275.02 -4771.21,-1595.43 -1075,-206.11 -2304.51,-235.21 -3170.49,341.05 -833.7,555.63 -1103.05,1512.08 -1247.77,2400.55 -109.01,668.34 -173.04,1371.85 125.41,1997.33 207.43,434.45 575.2,799.57 829.73,1215.75 885.56,1447.79 259.56,3233.2 -699.82,4646.86 -449.79,663.31 -972.34,1296.45 -1319.73,2001.83 -347.4,705.38 -508,1514.73 -203.99,2234.93 301.1,714.38 1018.91,1249.88 1796.51,1626.91 1579.29,765.97 3439.56,985.04 5254.87,1109.13 4017.15,274.9 8055.46,155.84 12083.21,36.78 1490.65,-44.19 2987.67,-88.9 4453.98,-319.35 814.39,-128.06 1654.96,-330.99 2246.3,-821.53 750.36,-622.56 936.36,-1676.65 433.39,-2457.44 -843.49,-1309.41 -3174.99,-1634.59 -3765.27,-3039.79 -324.38,-773.64 8.73,-1635.12 480.48,-2352.67 1011.77,-1538.81 2707.47,-2888.98 2796.64,-4647.92 61.38,-1208.08 -753.8,-2418.02 -2014.26,-2989.78 -1321.05,-599.02 -3153.29,-523.88 -4127.48,468.05 -1004.1,1021.29 -2767.8,1414.19 -4279.89,1361.8z"/>
  <path class="fil0" d="M20834.91 20663.66c0,-600.86 -3600.75,-1087.96 -8042.5,-1087.96 -4441.75,0 -8042.5,487.1 -8042.5,1087.96 0,600.86 3600.75,1087.96 8042.5,1087.96 4441.75,0 8042.5,-487.1 8042.5,-1087.96z"/>
  <path class="fil1" d="M8810.97 17424.64c0,0 555.63,-88.9 889,303.74 0,0 -244.48,192.62 -770.47,-74.08l-118.53 -229.66z"/>
  <path class="fil1" d="M8751.7 17415.91c0,0 -354.54,438.67 -180.71,922.07 0,0 288.93,-115.62 320.41,-704.59l-139.7 -217.48z"/>
  <path class="fil1" d="M8434.2 16698.62c0,0 222.25,-407.46 1111.25,162.98 0,0 -118.53,274.11 -511.18,251.88 -392.65,-22.23 -497.68,-200.02 -600.07,-414.86z"/>
  <path class="fil1" d="M8375.73 16669.26c0,0 -461.17,-52.92 -505.88,1002.77 0,0 292.36,60.85 500.06,-273.31 207.7,-334.16 121.7,-520.97 5.82,-729.46z"/>
  <path class="fil1" d="M8106.91 15827.36c0,0 259.29,-718.87 1200.4,-207.7 0,0 -214.84,659.61 -1104.11,452.17l-96.3 -244.47z"/>
  <path class="fil1" d="M7817.99 14752.88c0,0 488.95,-726.02 1355.98,-52.92 0,0 -303.74,681.57 -1281.9,311.15l-74.08 -258.23z"/>
  <path class="fil1" d="M7714.28 13730.54c0,0 570.44,-666.75 1428.74,0 0,0 -541.07,585.26 -1428.74,170.39l0 -170.39z"/>
  <path class="fil1" d="M7625.38 12737.83c0,0 577.85,-696.65 1400.43,-37.04 0,0 -652.2,614.89 -1400.43,200.03l0 -162.99z"/>
  <path class="fil1" d="M7677.24 11855.98c0,0 608.54,-896.41 1378.2,-288.93 0,0 -652.2,770.73 -1378.2,459.32l0 -170.39z"/>
  <path class="fil1" d="M7817.99 10826.22c0,0 644.53,-889 1393.02,-207.43 0,0 -763.32,770.47 -1393.02,370.42l0 -162.99z"/>
  <path class="fil1" d="M8033.09 9905.75c0,0 762.79,-835.29 1428.74,-502.71 0,0 -795.34,887.15 -1462.08,724.16l33.34 -221.45z"/>
  <path class="fil1" d="M8299.53 9033.42c0,0 881.86,-1022.61 1393.02,-681.83 0,0 -648.76,793.75 -1455.2,874.45l62.18 -192.62z"/>
  <path class="fil1" d="M8684.5 8021.12c0,0 771,-835.55 1334.02,-628.12 0,0 -659.34,867.04 -1437.47,889.26l103.45 -261.14z"/>
  <path class="fil1" d="M9033.22 7074.45c0,0 851.96,-800.1 1222.37,-659.34 0,0 -614.89,889 -1259.41,837.14l37.04 -177.8z"/>
  <path class="fil1" d="M9374 6200.27c0,0 733.43,-955.68 1133.47,-881.59 0,0 -444.5,851.96 -1133.47,978.96l0 -97.37z"/>
  <path class="fil1" d="M9743.62 5022.35c0,0 648.49,-732.9 998.54,-731.04 0,0 -511.7,978.96 -1025,969.96l26.46 -238.92z"/>
  <path class="fil1" d="M9962.96 4236.81l626 -1526.11c0,0 31.49,1379.53 -705.91,1809.21l79.91 -283.1z"/>
  <path class="fil1" d="M10216.95 2553.8c0,0 103.72,-1274.22 37.04,-1377.94 0,0 447.94,1058.33 -41.28,1940.97l4.24 -563.03z"/>
  <path class="fil1" d="M8082.83 15810.16c0,0 -649.55,-402.43 -1069.71,582.08 0,0 577.85,383.65 1145.9,-330.99l-76.2 -251.09z"/>
  <path class="fil1" d="M7797.35 14711.87c0,0 -796.4,-363.27 -1182.94,664.63 0,0 615.42,423.33 1255.44,-404.81l-72.5 -259.82z"/>
  <path class="fil1" d="M7677.24 13791.66c0,0 -570.44,-666.75 -1428.74,0 0,0 540.81,585.26 1428.74,170.39l0 -170.39z"/>
  <path class="fil1" d="M7606.06 12737.83c0,0 -578.11,-696.65 -1400.43,-37.04 0,0 651.93,614.89 1400.43,200.03l0 -162.99z"/>
  <path class="fil1" d="M7677.24 11881.38c0,0 -405.34,-1004.09 -1286.39,-572.29 0,0 476.25,890.59 1250.68,738.98l35.71 -166.69z"/>
  <path class="fil1" d="M7869.05 10821.2c0,0 -402.7,-1021.56 -1296.45,-547.95 0,0 547.16,936.36 1256.76,705.91l39.69 -157.96z"/>
  <path class="fil1" d="M8118.82 9911.04c0,0 -158.75,-1120.24 -898.26,-1220.51 0,0 156.9,1181.09 799.57,1422.13l98.69 -201.62z"/>
  <path class="fil1" d="M8318.58 9035.27c0,0 -62.18,-1349.37 -674.69,-1396.2 0,0 20.64,1023.94 605.63,1587.49l69.06 -191.29z"/>
  <path class="fil1" d="M8748.26 7982.49c0,0 -182.83,-1121.82 -767.29,-1259.14 0,0 72.5,1086.64 709.35,1534.57l57.94 -275.43z"/>
  <path class="fil1" d="M9102.54 7082.65c0,0 -6.35,-1168.92 -363.54,-1340.63 0,0 -221.46,1058.33 260.09,1489.86l103.45 -149.23z"/>
  <path class="fil1" d="M9401.25 6186.51c0,0 -50.27,-1203.84 -419.89,-1373.44 0,0 -126.74,952.5 364.33,1452.02l55.56 -78.58z"/>
  <path class="fil1" d="M9795.48 5117.6c0,0 -2.38,-978.96 -266.44,-1208.61 0,0 -262.47,1072.62 128.59,1405.46l137.85 -196.85z"/>
  <path class="fil1" d="M9931.74 4188.65l-256.65 -1629.56c0,0 -349.25,1335.34 268.82,1923.51l-12.17 -293.95z"/>
  <path class="fil1" d="M9982.01 2569.15c0,0 -659.61,-1095.11 -645.85,-1217.07 0,0 69.85,1148.28 899.58,1719.78l-253.73 -502.71z"/>
  <path class="fil1" d="M10059.26 2245.83c0,0 -622.3,-1556.01 -903.82,-1681.95 0,0 889,451.91 955.68,1637.5l-51.86 44.45z"/>
  <path class="fil2" d="M9713.73 5269.74l-42.6 -12.96c525.2,-1712.64 656.43,-2804.57 369.09,-3078.15l30.69 -32.28c304.27,288.65 180.98,1367.88 -357.18,3123.39z"/>
  <path class="fil2" d="M8267.51 9278.69l-62.71 -22.23c55.56,-156.9 115.62,-316.18 178.59,-473.34 548.22,-1366.3 1014.94,-2637.09 1314.18,-3612.87l54.77 -26.46c-299.77,977.64 -758.03,2297.37 -1307.03,3665.25 -62.7,155.58 -122.5,314.33 -177.8,469.65z"/>
  <path class="fil2" d="M9592.81 18706.54c-8.47,-9.53 -859.9,-967.85 -1453.08,-2604.55 -347.14,-956.8 -542.55,-1966.8 -574.33,-2983.88 -40.75,-1273.43 226.48,-2695.3 684.21,-3986.72l49.74 58.21c-1027.38,2898.77 -619.13,5382.93 -77.79,6879.14 587.38,1621.62 1428.74,2569.89 1437.21,2579.15l-65.96 58.65z"/>
  <path class="fil3" d="M17068.04 7668.18l113.24 0c33.46,0 60.59,27.13 60.59,60.59l0 1810.79c0,33.46 -27.13,60.59 -60.59,60.59l-113.24 0c-33.46,0 -60.59,-27.13 -60.59,-60.59l0 -1810.79c0,-33.46 27.13,-60.59 60.59,-60.59z"/>
  <path class="fil3" d="M9277.96 6154.5l10.32 0c33.47,-0.01 60.6,27.12 60.6,60.58l-0.02 514.88c0.02,33.46 -27.11,60.59 -60.57,60.59l-10.33 0c-33.45,0 -60.58,-27.13 -60.58,-60.59l-0.01 -514.88c0.01,-33.46 27.14,-60.59 60.6,-60.59z"/>
  <path class="fil3" d="M9273.19 7319.19l26.99 0c33.47,0 60.6,27.13 60.6,60.59l-0.01 985.84c0.01,33.46 -27.12,60.59 -60.58,60.59l-27 0c-33.45,0 -60.58,-27.13 -60.58,-60.59l-0.01 -985.84c0.01,-33.46 27.14,-60.59 60.6,-60.59z"/>
  <path class="fil3" d="M9275.58 8813.55l19.84 0c33.47,0 60.6,27.13 60.6,60.59l-0.01 995.36c0.01,33.46 -27.12,60.59 -60.58,60.59l-19.85 0c-33.45,0 -60.58,-27.13 -60.58,-60.59l-0.01 -995.36c0.01,-33.46 27.14,-60.59 60.6,-60.59z"/>
  <path class="fil3" d="M10323.32 4052.66l5778.99 0c569.65,0 1031.61,461.96 1031.61,1031.61l0 13874.95c0,569.64 -461.96,1031.6 -1031.61,1031.6l-5778.99 0.01c-569.64,-0.01 -1031.6,-461.97 -1031.6,-1031.62l-0.02 -13874.94c0.02,-569.65 461.98,-1031.61 1031.63,-1031.61z"/>
  <path class="fil4" d="M16027.71 4466.73l-899.58 0 0 108.21c-0.01,0.01 -0.01,0.01 -0.01,0.01 0,283.14 -229.62,512.76 -512.76,512.76 -0.06,0 -0.19,0 -0.25,0l-2860.94 0c-0.07,0 -0.2,0 -0.26,0 -283.14,0 -512.76,-229.62 -512.76,-512.76 0,0 0,0 0,0l-0.01 -108.22 -842.16 0c-343.91,0 -622.82,278.91 -622.82,622.83l-0.01 13863.31c0.01,343.9 278.92,622.81 622.84,622.81l5628.7 0.02c343.92,-0.02 622.83,-278.93 622.83,-622.85l0 -13862.23c0,-0.3 0,-0.76 0,-1.06 0,-343.92 -278.91,-622.83 -622.83,-622.83 0,0 0,0 0,0z"/>
  <path class="fil5" d="M12558.77 4528.64l890.32 0c56.54,0 102.39,45.85 102.39,102.39l0.01 17.47c-0.01,56.54 -45.86,102.39 -102.4,102.39l-890.32 0c-56.53,0 -102.38,-45.85 -102.38,-102.39l-0.01 -17.47c0.01,-56.54 45.86,-102.39 102.4,-102.39z"/>
  <circle class="fil5" cx="13843.32" cy="4639.77" r="126.2"/>
  <path class="fil1" d="M19849.07 3353.63c0,0 -2227.78,-134.41 -1965.32,1426.62 0,0 -52.92,275.96 197.91,401.11 0,0 3.97,-115.62 228.6,-76.2 56.33,9.34 113.75,14.06 170.91,14.06 23.73,0 47.59,-0.89 71.2,-2.42 109,-7.16 212.99,-49.7 295.79,-120.94l0 0.02c0,0 626.27,-258.76 869.69,-1282.16 0,0 180.18,-223.31 173.04,-280.72l-375.98 160.6c0,0 128.59,271.2 26.46,496.62 0,0 -12.17,-486.83 -84.4,-476.25 -14.55,2.12 -195.26,93.93 -195.26,93.93 0,0 220.93,472.28 54.24,815.71 0,0 63.24,-582.08 -123.3,-781.58l-264.58 154.52c0,0 258.23,487.89 83.08,886.09 0,0 44.98,-610.66 -138.91,-848.52l-239.71 187.06c0,0 242.62,480.75 94.72,810.95 0,0 -19.31,-710.67 -146.58,-764.38 0,0 -209.81,185.21 -241.83,260.88 0,0 166.16,349.25 62.97,533.4 0,0 -63.24,-473.6 -115.09,-476.25 0,0 -209.02,313.8 -230.72,529.17 0,0 9,-319.88 180.18,-558.8 0,0 -202.14,34.66 -320.15,165.63 0,0 32.54,-221.72 371.74,-241.3 0,0 172.77,-238.13 218.81,-252.41 0,0 -337.08,-28.31 -541.6,62.44 0,0 179.92,-209.29 603.51,-114.04l236.8 -193.41c0,0 -443.97,-60.59 -632.35,6.35 0,0 216.69,-185.21 696.12,-50.27l257.7 -153.99c0,0 -378.62,-81.49 -604.04,-52.92 0,0 238.13,-128.32 679.71,10.85l185.21 -82.81c0,0 -277.28,-54.5 -358.51,-63.24 -81.23,-8.74 -85.46,-30.96 -85.46,-30.96 52.16,-8.63 105.24,-13.09 158.19,-13.09 124.34,0 247.75,24.19 362.82,71.04 115.07,46.85 391.01,-145.79 384.4,-170.39z"/>
  <path class="fil1" d="M17563.87 2659.37c0,0 -1005.42,-60.59 -887.94,644.79 0,0 -23.55,124.62 89.43,181.24 0,0 1.85,-52.92 103.45,-34.66 25.36,4.22 51.16,6.43 76.89,6.43 10.8,0 21.66,-0.4 32.41,-1.13 49.29,-3.25 96.29,-22.64 133.59,-55.04l0 0c0,0 283.1,-116.95 393.17,-579.44 0,0 81.23,-100.81 78.05,-126.74l-169.86 72.5c0,0 57.94,122.5 12.44,224.37 0,0 -5.56,-219.87 -38.1,-214.84 -6.61,0 -88.37,42.6 -88.37,42.6 0,0 100.01,213.52 24.61,368.56 0,0 28.58,-263 -55.83,-353.22l-119.6 70.91c0,0 116.68,220.4 37.57,400.31 0,0 20.37,-275.96 -62.71,-383.38l-108.21 84.67c0,0 109.54,217.22 42.86,366.45 0,0 -9,-321.2 -66.41,-345.55 0,0 -94.72,83.61 -109.27,118 0,0 75.14,158.75 28.58,241.04 0,0 -28.58,-214.05 -52.92,-215.11 0,0 -94.46,141.82 -104.25,238.13 4.7,-89.81 32.89,-176.89 81.5,-252.43 -54.49,10.3 -104.81,36.37 -144.71,74.88 -39.9,38.51 14.82,-100.28 168.01,-109.01 0,0 79.38,-107.69 98.95,-114.3 0,0 -152.4,-12.7 -244.74,28.31 0,0 81.23,-94.46 272.52,-51.59l105.83 -87.31c0,0 -200.82,-26.46 -285.75,2.91 0,0 97.9,-83.61 314.59,-22.75l116.42 -69.59c0,0 -171.19,-36.78 -273.05,-23.55 0,0 107.69,-57.94 307.18,4.76l83.34 -37.31c0,0 -125.41,-24.61 -162.19,-28.58 -36.78,-3.97 -38.63,-14.02 -38.63,-14.02 23.45,-3.85 47.33,-5.86 71.15,-5.86 56.33,0 112.24,11.01 164.33,32.35 52.09,21.34 178.85,-66.69 175.67,-77.8z"/>
  <polygon class="fil6" points="10475.19,17605.88 15950.72,17605.88 15950.72,5984.37 10475.19,5984.37 "/>
  <path class="fil7" d="M15782.97 20850.19c0,0 -129.12,-300.57 -186.8,-439.21 -32.54,-79.38 -87.58,-92.6 -129.65,-90.75l2.38 -26.46 10.32 -125.15 2.12 -26.46c99.75,-20.9 185.21,-37.31 185.21,-37.31l-62.17 -3209.91c0,0 -26.46,-33.87 -90.49,-238.13 -31.75,-101.86 -185.21,-227.01 -328.61,-326.76 -22.49,-15.61 -44.45,-30.43 -66.15,-44.71 52.22,-43.78 107.24,-84.29 164.28,-121.17 81.49,-47.36 108.48,-317.5 108.48,-317.5l-13.49 26.46c13.49,-26.46 0,-716.23 0,-716.23l-47.63 -715.96c0,0 -33.87,-851.16 -298.45,-1074.21 -264.58,-223.05 -598.72,-301.1 -598.72,-301.1l-185.21 -47.63 0 0 -341.31 -87.58c-9.53,-15.61 -18.79,-32.01 -26.46,-49.21 -3.44,-6.61 -6.61,-13.49 -9.79,-20.37 211.5,-149.78 337.34,-392.98 337.34,-652.17 0,0 0,0 0,0 0,-0.34 0,-0.82 0,-1.11 0,-42.45 -3.46,-85.09 -10.28,-126.96 0,-7.94 -2.91,-16.14 -4.5,-24.08 27.94,-19.13 54.56,-40.62 79.3,-63.82 40.4,-32.13 73.51,-72.77 96.89,-118.78l-0.01 0.02c3.64,-9 6.7,-18.34 8.99,-27.78 0,-2.65 0,-5.29 1.59,-8.2 1.59,-2.91 2.38,-14.02 3.18,-21.17 0,-2.65 0,-5.29 0,-7.94 0,-7.67 0,-15.61 0,-23.28 0,-1.85 0,-3.7 0,-5.82 0,-8.73 -1.32,-17.46 -2.65,-26.46 0.06,-0.28 0.09,-0.54 0.09,-0.81 0,-0.27 -0.03,-0.53 -0.09,-0.79l0 0.02c-4.84,-30.71 -12.84,-60.95 -23.79,-89.97 -26.46,-68.26 -60.85,-132.29 -73.29,-205.05 -15.35,-85.99 2.38,-179.92 -38.63,-257.18 -34.46,-59.13 -93.64,-99.81 -161.16,-110.85 -19.12,-2.92 -38.54,-4.45 -57.87,-4.45 -48.3,0 -96.28,9.27 -141.1,27.2 -30.82,14.62 -64.14,23.64 -98.15,26.44 -24.72,-1.43 -49.08,-7.36 -71.71,-17.45 -78.49,-30.8 -153.14,-70.91 -222.21,-119.33 -49.69,-39.12 -103.09,-74.07 -158.81,-103.69 -30.62,-16.03 -64.77,-24.4 -99.37,-24.4 -28.75,0 -57.23,5.8 -83.7,16.97 -97.9,49.74 -116.42,188.38 -207.43,249.5 -62.71,42.33 -144.46,38.1 -220.13,40.75 -75.67,2.65 -161.4,21.43 -198.7,87.05 -26.46,45.51 -20.11,99.75 -15.08,152.93l1.59 17.99c0,6.35 0,12.96 1.59,19.31 0.61,9.85 0.91,19.82 0.91,29.73 0,58.09 -10.44,115.95 -30.8,170.3 -36.51,96.84 -105.83,192.35 -103.45,291.04l-0.02 0.01c0.21,15.64 2.29,31.35 6.1,46.54 2.03,7.59 4.57,15.15 7.41,22.49l-0.01 0.02c14.46,32.57 31.06,64.69 48.99,95.48l2.38 4.23c1.85,3.7 3.7,7.41 5.29,11.11 1.59,3.7 4.76,10.05 6.61,15.08 1.85,5.03 2.12,5.03 2.91,7.41 0.79,2.38 3.44,9.79 4.76,14.82 3.73,12.91 5.67,26.35 5.67,39.8 0,2.08 -0.05,4.19 -0.14,6.25 -3.07,19.98 -4.8,40.38 -5.01,60.58 0.16,20.94 14.94,38.91 35.44,43.14 10.9,-0.28 21.54,-3.57 30.68,-9.52 23.68,-13.5 46.35,-29.1 67.47,-46.31 0,8.47 0,16.93 1.59,26.46 18.33,189.23 103.76,366.05 240.51,498.2 0,8.2 0,16.67 -1.85,26.46 -1.85,9.79 -1.32,19.05 -1.85,28.84l-0.01 0.03 -296.33 93.13c0,0 1.59,5.29 4.76,14.29l-31.22 12.44 0 0c-153.72,62.18 -324.91,139.44 -420.69,209.55 -42.33,30.69 -80.96,55.83 -115.62,76.73 -125.84,76.9 -222.34,193.91 -274.11,332l-3.97 10.05c-26.46,60.59 -156.1,472.81 -156.1,472.81 0,0 -94.99,229.66 -108.74,378.35 0,0 -156.1,492.92 -115.36,817.3 0,0 -122.24,466.2 -74.61,540.28 0,0 -48.68,200.55 165.1,402.43 -15.61,9.53 -32.54,19.84 -50.27,31.22 -165.63,104.25 -404.55,273.31 -445.29,403.75 -63.24,202.94 -90.49,238.13 -90.49,238.13l-64.04 3204.94c0,0 85.46,16.4 185.21,37.04l2.12 26.46 10.32 124.88 2.38 26.46c-42.07,-1.85 -97.1,12.7 -129.65,91.02 -57.94,138.38 -185.21,438.68 -185.21,438.68 0,0 -284.96,264.58 -112.18,510.12 7.62,11.19 16.53,21.5 26.48,30.67 124.09,112.71 388.67,40.48 576.79,-33.07 95.5,-40.7 178.11,-107.38 238.13,-192.12 15.29,-20.04 38.34,-32.81 63.47,-35.15 43.12,-6.92 83.86,-24.71 118.27,-51.59 40.92,-29.88 65.15,-77.54 65.15,-128.22 0,-1.36 -0.04,-2.73 -0.06,-4.07 -0.07,-0.67 -0.1,-1.34 -0.1,-2 0,-0.66 0.03,-1.33 0.1,-1.98l-16.67 -376.5c0,0 -20.37,-263 -85.2,-246.06l-16.67 3.97 -4.5 -26.46 0.01 0.01 -8.73 -51.06 -4.5 -26.46 35.98 0c0,0 9,-297.39 117.74,-531.28 108.74,-233.89 180.18,-2123.28 180.18,-2123.28 0,0 1345.93,21.96 1390.9,-104.25l0 0c26.46,0 55.3,0 82.81,-1.85 45.24,126.21 1315.5,132.29 1315.5,132.29 0,0 72.23,1891.5 180.71,2125.65 22.88,50.1 42,102.06 56.9,155.06l-0.01 0c33.99,122.32 54.7,248.88 61.04,375.86l35.98 0 -4.76 26.46 -8.73 50.8 -4.5 26.46 -17.2 -3.97c-64.29,-16.67 -84.67,246.33 -84.67,246.33l-17.2 378.88c-0.04,2.75 -0.12,5.47 -0.12,8.15 0,49.11 23.5,95.32 63.19,124.24 35.01,27.44 76.48,45.69 120.38,52.89 25.17,2.03 48.3,14.77 63.49,34.94 60.12,84.72 142.62,151.25 238.14,192.09 203.2,79.38 495.3,156.9 603.78,2.65 174.09,-246.05 -110.87,-509.57 -110.87,-509.57zm-3421.04 -4718.56l0 0 3.18 0 -3.18 0zm2125.92 -1081.62c0,0 34.13,128.32 94.99,195.79 60.86,67.47 30.69,486.57 30.69,486.57 -23.92,1.48 -47.73,5.33 -70.94,11.34 -46.81,-278.57 -89.93,-587.87 -54.74,-693.7z"/>
  <polygon class="fil8" points="11561.3,20331.34 11029.22,20384.26 11014.41,20206.19 11004.09,20083.69 10989.54,19904.57 11492.24,19931.02 11532.2,20160.95 11540.66,20210.95 11540.93,20210.95 "/>
  <polygon class="fil8" points="15436.1,19931.29 15421.55,20110.15 15411.5,20232.65 15396.42,20410.71 14864.07,20357.8 14885.24,20237.41 14893.44,20187.67 14933.4,19957.75 "/>
  <path class="fil9" d="M14872.28 17354.52l-1582.2 74.35c-71.97,3.53 -143.94,3.53 -215.9,0l-1511.55 -74.08 -0.01 -1197.5 3309.67 0 0 1197.23z"/>
  <path class="fil6" d="M14872.28 17354.52l-1582.2 74.35c-71.97,3.53 -143.94,3.53 -215.9,0l-1511.55 -74.08 -0.01 -1197.5 3309.67 0 0 1197.23z"/>
  <path class="fil10" d="M12846.11 12930.97c0,0 -527.05,177.01 -725.49,322.53 -41.28,30.16 -79.38,55.03 -112.71,75.41 -122.5,75.51 -216.37,190.03 -266.42,324.89 -1.32,3.7 -2.65,6.88 -3.97,9.79 -26.46,59.53 -152.14,463.02 -152.14,463.02 0,0 -92.6,224.9 -105.83,370.42 -13.23,145.52 754.06,535.78 754.06,535.78 0,0 -370.42,806.98 -205.05,1012.03 165.37,205.05 2579.68,304.27 2526.76,0 -52.92,-304.27 -145.52,-806.98 -99.22,-945.89l820.21 -595.31c0,0 -33.07,-833.44 -291.04,-1051.72 -257.97,-218.28 -582.08,-297.66 -582.08,-297.66l-513.56 -132.29c0,0 -180.98,449.79 -379.41,509.32 -198.43,59.53 -633.17,-215.35 -664.12,-600.32z"/>
  <path class="fil6" d="M13586.41 13688.48c0,0 -223.84,186.8 -341.31,0 0,0 -105.83,315.91 0,421.75l-3.97 21.43 -18.79 94.19 -245 2037.28 201.61 347.92 366.98 -460.37 -29.63 -1904.99 -13.23 -109.27 -3.18 -26.46 62.71 0c0,0 166.42,-287.61 23.81,-421.48z"/>
  <path class="fil6" d="M13639.33 13688.48c0,0 -223.84,186.8 -341.31,0 0,0 -105.83,315.91 0,421.75l-3.97 21.43 -18.79 94.19 -245 2037.28 201.61 347.92 366.98 -460.37 -29.63 -1904.99 -13.23 -109.27 -3.18 -26.46 62.71 0c0,0 166.42,-287.61 23.81,-421.48z"/>
  <polygon class="fil11" points="13572.39,16124.48 13205.41,16584.07 13003.27,16237.99 13248.54,14199.65 13267.32,14105.46 13271.56,14083.76 13304.63,13998.04 13526.35,14083.76 13529.53,14110.22 13542.76,14219.49 "/>
  <path class="fil6" d="M11532.2 20160.68c-114.04,-0.64 -228.36,-12.49 -340.05,-34.65 -55.3,-13.76 -124.62,-29.1 -187.85,-42.6l-14.82 -179.12 502.71 26.46 40.01 229.91z"/>
  <path class="fil9" d="M13209.38 17431.25c-43.92,123.56 -1355.72,101.86 -1355.72,101.86 0,0 -70.38,1852.07 -176.21,2081.47 -105.83,229.4 -114.83,520.17 -114.83,520.17 0,0 -229.13,0 -370.42,-35.19 -141.29,-35.19 -370.42,-79.38 -370.42,-79.38l61.91 -3141.92c0,0 26.46,-33.07 88.11,-231.78 39.69,-127.79 272.52,-293.42 433.65,-396.88 89.96,-56.62 157.16,-93.66 157.16,-93.66l782.64 31.75 483.13 19.58c0,0 425.2,1100.42 381.01,1223.97z"/>
  <path class="fil6" d="M11561.57 20331.07l-532.34 52.92 -15.08 -178.06c19.92,0.52 39.61,4.84 57.95,12.67 97.1,69.85 374.65,14.29 468.58,-7.94l-0.02 0.03 20.91 120.38z"/>
  <path class="fil11" d="M11662.11 20845.69c0.01,1.25 0.05,2.58 0.05,3.87 0,49.62 -23.72,96.28 -63.8,125.5 -33.48,26.24 -73.15,43.67 -115.11,50.52 -24.5,2.12 -46.97,14.66 -61.64,34.41 -58.78,82.95 -139.48,148.07 -232.85,188.12 -183.36,71.97 -441.33,142.61 -562.24,32.28 -9.94,-8.86 -18.86,-18.94 -26.44,-29.91 -168.54,-241.3 109.27,-499.53 109.27,-499.53 0,0 125.41,-294.22 181.77,-429.68 18.44,-53.26 68.63,-89 125,-89 19.62,0 39.05,4.38 56.77,12.79 105.83,76.2 426.77,3.18 489.48,-12.96 62.71,-16.14 82.81,241.04 82.81,241.04l16.93 368.58c-0.07,0.64 -0.1,1.31 -0.1,1.97 0,0.66 0.03,1.33 0.1,1.98l0 0.02z"/>
  <path class="fil6" d="M15436.37 19931.02l-14.82 178.86c-63.24,13.49 -132.29,28.84 -188.12,42.6 -111.53,22.2 -225.72,34.3 -339.68,34.96l39.95 -229.92 502.67 -26.5z"/>
  <path class="fil9" d="M15604.38 20046.65c0,0 -229.13,44.19 -370.42,79.38 -141.29,35.19 -370.42,35.19 -370.42,35.19 0,0 -8.73,-291.04 -114.56,-520.17 -105.83,-229.13 -176.48,-2081.48 -176.48,-2081.48 0,0 -1237.71,-7.14 -1281.9,-130.7 -44.19,-123.56 539.49,-1190.62 539.49,-1190.62l355.86 -18.52 677.61 -35.98c0,0 132.29,71.97 270.93,169.07 138.64,97.1 289.19,220.4 320.15,320.15 61.65,198.7 88.11,231.78 88.11,231.78l61.64 3141.91z"/>
  <path class="fil6" d="M15411.5 20232.39l-14.82 178.06 -532.61 -52.92 21.17 -120.39c93.93,22.49 370.42,77.79 468.31,7.94 18.33,-7.85 38.02,-12.17 57.94,-12.71l0.01 0.02z"/>
  <path class="fil11" d="M15353.55 20271.54c17.78,-8.51 37.27,-12.92 56.99,-12.92 56.41,0 106.63,35.79 125.04,89.1 56.09,135.47 181.77,429.95 181.77,429.95 0,0 277.81,257.97 109.27,499.27 -105.83,151.34 -390.53,75.41 -588.43,-2.38 -93.53,-39.84 -174.19,-105.09 -232.81,-188.09 -14.77,-19.82 -37.34,-32.35 -61.94,-34.41 -42.93,-7.47 -83.4,-25.72 -117.46,-52.91 -38.55,-28.54 -61.31,-73.69 -61.31,-121.66 0,-2.48 0.07,-5.01 0.18,-7.46l16.67 -370.42c0,0 19.84,-257.44 82.55,-241.3 62.71,16.14 383.65,89.43 489.48,13.23z"/>
  <path class="fil12" d="M13985.93 13154.28l-534.19 566.21 -14.82 15.88 -19.31 -11.38c-111.65,-66.15 -670.19,-403.23 -622.3,-504.56 26.46,-57.68 42.07,-177.8 50.27,-281.25 0,-12.44 1.59,-24.61 2.65,-36.51 5.29,-81.76 6.61,-145.26 6.61,-145.26 0,0 1005.42,-171.98 965.73,0 -16.14,69.59 7.94,147.9 42.07,216.43 10.05,19.84 21.17,38.63 32.01,56.36 26.6,43.83 57.41,85.61 91.3,124.09l-0.02 -0.01z"/>
  <path class="fil6" d="M13862.64 12973.84c-134.79,99.21 -297.99,152.94 -465.4,152.94 -205.23,0 -402.43,-80.55 -548.97,-224.11 5.29,-81.76 6.61,-145.26 6.61,-145.26 0,0 1005.42,-171.98 965.73,0 -15.39,70.11 7.9,147.9 42.03,216.43z"/>
  <path class="fil12" d="M14181.99 12315.29c-0.02,3.5 0.08,7.53 0.08,11.17 0,433.48 -351.54,785.02 -785.02,785.02 -408.94,0 -749.45,-314.07 -782.42,-721.57 -2.14,-24.7 -3.21,-49.57 -3.21,-74.62 -0.02,-4.75 -0.12,-9.64 -0.12,-14.43 0,-433.48 351.54,-785.02 785.01,-785.02 433.48,0 785.02,351.54 785.02,785.02 0,4.79 -0.1,9.68 -0.1,14.38l0.76 0.05z"/>
  <path class="fil6" d="M14172.2 12189.89c-33.49,27.25 -75.43,42.18 -118.64,42.18 -9.7,0 -19.42,-0.76 -28.99,-2.25 -121.18,-26.46 -162.72,-211.67 -286.54,-224.37 -123.82,-12.7 -206.11,158.75 -331.52,155.31 -52.92,-1.32 -100.54,-35.98 -149.23,-60.06 -85.2,-42.07 -225.43,-67.73 -317.5,-35.98 -138.38,47.36 -185.21,175.42 -273.58,277.28 -15.03,17.29 -31.68,33.4 -49.47,47.88 -2.13,-24.67 -3.19,-49.53 -3.19,-74.58 -0.03,-2.35 -0.03,-4.84 -0.03,-7.14 0,-433.48 351.54,-785.02 785.01,-785.02 387.86,0 717.65,283.4 776.01,666.75l-2.33 0z"/>
  <path class="fil8" d="M13257.27 12074.53c48.68,23.81 95.25,58.74 149.23,60.06 125.15,3.18 206.9,-169.07 331.26,-155.58 124.36,13.49 165.36,197.11 287.07,224.37 81.76,18.52 158.75,-42.6 219.87,-99.48 39.44,-31.45 71.75,-71.15 94.44,-116.19 26.46,-65.62 12.7,-141.29 -11.91,-207.96 -24.61,-66.67 -59.27,-130.7 -71.44,-200.82 -14.82,-84.14 2.38,-176.21 -37.57,-251.88 -33.42,-57.85 -91.2,-97.71 -157.15,-108.47 -18.77,-2.89 -37.77,-4.38 -56.76,-4.38 -46.94,0 -93.57,8.95 -137.16,26.32 -29.98,14.53 -62.37,23.57 -95.53,26.49 -24.2,-1.46 -47.97,-7.33 -70.11,-17.2 -76.3,-30.03 -149.36,-69.46 -216.47,-116.74 -48.21,-38.35 -99.87,-72.54 -154.24,-101.52 -29.75,-15.66 -62.98,-23.86 -96.65,-23.86 -28.05,0 -55.86,5.71 -81.65,16.71 -95.25,48.68 -113.51,185.21 -202.14,244.21 -61.12,41.28 -140.76,37.04 -214.31,39.95 -73.55,2.91 -158.75,20.64 -193.68,84.93 -31.22,55.3 -15.61,123.3 -11.64,186.53 0.56,9.31 0.85,18.96 0.85,28.37 0,57.12 -10.29,113.89 -30.23,167.39 -41.01,109.54 -124.35,217.49 -94.72,330.73 19.31,74.35 85.99,136 82.02,211.67 -3.07,19.48 -4.79,39.29 -4.99,58.99 0.15,20.52 14.57,38.14 34.63,42.36 10.61,-0.14 20.95,-3.46 29.64,-9.53 43.97,-24.55 83.45,-56.58 116.67,-94.44 89.43,-102.13 135.73,-229.92 274.11,-277.28 93.4,-30.96 233.36,-6.09 318.56,36.25z"/>
  <path class="fil12" d="M14167.7 16693.07l-142.88 38.89 -329.93 90.76c-76.33,56.85 -162.37,99.67 -253.75,126.14 -201.88,51.06 -332.32,-60.06 -440.8,-232.04 -43.66,-68.79 -21.7,-123.83 35.45,-166.95 137.58,-103.98 477.84,-137.85 582.08,-124.09 11.72,0.95 23.63,1.48 35.38,1.48 56.73,0 112.98,-11.11 165.46,-32.64 44.98,-16.38 88.67,-37.08 129.89,-61.39l219.1 359.84z"/>
  <path class="fil6" d="M14167.7 16693.07l-142.88 38.89c-41.01,-123.56 -108.48,-278.61 -205.05,-338.14 44.98,-16.38 88.67,-37.08 129.89,-61.39l218.04 360.64z"/>
  <path class="fil6" d="M15133.95 16352.82c-59.27,47.89 -109.54,91.55 -109.54,91.55 0,0 -687.92,215.64 -820.21,486.83 0,0 -105.83,-529.17 -330.73,-535.78 0,0 242.09,-94.99 311.94,-176.21l678.14 -35.46c0,0 132.29,71.97 270.4,169.07z"/>
  <path class="fil10" d="M15123.63 14278.76l152.14 224.9 46.3 701.15c0,0 13.23,674.69 0,701.15l13.23 -26.46c0,0 -26.46,264.58 -105.83,310.89 -79.37,46.31 -257.97,201.08 -257.97,201.08 0,0 -687.92,215.64 -820.21,486.83 0,0 -105.83,-529.17 -330.73,-535.78 0,0 337.34,-132.29 330.73,-218.28 0,0 257.97,-231.51 277.81,-291.04 19.84,-59.53 148.7,-66.15 148.7,-66.15 0,0 29.9,-410.1 -29.63,-476.25 -59.53,-66.15 -92.6,-191.82 -92.6,-191.82l668.06 -820.22z"/>
  <path class="fil6" d="M13441.16 16948.12c-201.88,51.06 -332.32,-60.06 -440.8,-232.04 -43.66,-68.79 -21.7,-123.83 35.45,-166.95l20.64 8.2c0,0 363.8,157.69 384.71,390.79z"/>
  <path class="fil12" d="M13357.55 17159.52c-238.13,330.73 -681.3,-129.12 -714.38,-221.72 -11.91,-33.6 -57.15,-63.5 -109.27,-87.58 -66.14,-28.82 -134.97,-51.72 -205.1,-67.99l393.7 -320.68 75.41 30.16 232.08 92.87c0,0 565.68,244.22 327.56,574.94z"/>
  <path class="fil6" d="M12797.95 16491.73c-216.96,103.19 -263.26,251.62 -264.58,358.51 -66.14,-28.83 -134.97,-51.73 -205.1,-68l393.7 -320.68 75.98 30.17z"/>
  <path class="fil6" d="M12451.35 17063.48c0,0 -635,-502.71 -939.27,-720.99 -37.93,-27.12 -73.54,-57.82 -105.79,-91.52 89.96,-56.62 157.16,-93.66 157.16,-93.66l782.64 31.75c20.9,36.25 33.34,60.85 33.34,60.85l423.33 277.81c-510.16,165.34 -351.41,535.76 -351.41,535.76z"/>
  <path class="fil10" d="M11604.69 14424.28l-125.68 72.76c0,0 -152.14,482.86 -112.45,800.36 0,0 -119.06,456.41 -72.76,529.17 0,0 -59.53,244.74 244.74,463.02 304.27,218.28 939.27,720.99 939.27,720.99 0,0 -158.75,-370.42 350.57,-535.78l-423.33 -277.81c0,0 -142.08,-282.05 -277.81,-343.96 0,0 -105.83,-105.83 -39.69,-178.59 66.14,-72.76 119.06,-152.14 119.06,-224.9 0,-72.76 26.46,-416.72 26.46,-416.72l79.38 -370.42 -707.76 -238.12z"/>
  <path class="fil6" d="M13529.53 14109.96l-257.97 0c-1.54,-1.47 -2.97,-3.07 -4.22,-4.78l4.23 -21.7 33.07 -85.73 221.72 85.73 3.17 26.48z"/>
  <path class="fil11" d="M13612.87 13662.02c0,0 -223.84,186.8 -341.31,0 0,0 -105.83,315.91 0,421.75l317.5 -0.01c0,0 166.42,-287.86 23.81,-421.74z"/>
  <path class="fil6" d="M13915.55 13048.45l333.38 85.99c0,0 -315.91,820.21 -385.5,820.21l-400.05 -191.82 452.17 -714.38z"/>
  <path class="fil6" d="M13985.93 13154.28l-534.19 566.21 -14.82 15.88 -19.31 -11.38 466.99 -712.26 11.38 18.79c26.2,43.35 56.58,84.71 89.95,122.76z"/>
  <path class="fil10" d="M13889.09 13021.99l333.38 85.99c0,0 -315.91,820.21 -385.5,820.21l-400.05 -191.82 452.17 -714.38z"/>
  <path class="fil6" d="M12819.65 12957.43l-288.93 91.02c0,0 284.43,859.9 363.8,906.2l515.94 -191.82 -590.81 -805.4z"/>
  <path class="fil6" d="M13451.74 13720.49l-14.82 15.88c0,0 -694.53,-403.49 -641.61,-515.94 26.46,-57.68 42.07,-177.8 50.27,-281.25l0 -16.14 606.16 797.45z"/>
  <path class="fil10" d="M12846.11 12930.97l-288.93 91.02c0,0 284.43,859.9 363.8,906.2l515.94 -191.82 -590.81 -805.4z"/>
  <path class="fil6" d="M12157.94 14335.65c0,0 174.1,30.96 170.92,211.67 -3.18,180.71 71.7,-233.63 71.7,-233.63l-242.62 21.96z"/>
  <path class="fil6" d="M12197.62 14891.26c0,0 -48.42,273.31 0,520.44 48.42,247.13 44.19,330.73 81.76,343.96 37.57,13.23 -81.76,-864.4 -81.76,-864.4z"/>
  <path class="fil6" d="M14420.11 14864.8c-47.85,6.05 -83.73,46.77 -83.73,95 0,9.67 1.47,19.32 4.35,28.54 22.23,110.62 79.38,-123.54 79.38,-123.54z"/>
  <path class="fil6" d="M11395.14 15790.84c0,0 567,-48.42 661.46,52.92 94.46,101.34 -661.46,-52.92 -661.46,-52.92z"/>
  <path class="fil6" d="M14684.69 15829.21c0,0 414.6,-51.06 511.7,19.58m-511.7 -19.58l0 0 0 0z"/>
  <path class="fil6" d="M14852.43 15896.68c0,0 246.86,8.73 304.27,39.69m-304.27 -39.69l0 0 0 0z"/>
  <path class="fil6" d="M14900.85 15985.31c0,0 224.9,-8.73 255.85,26.46m-255.85 -26.46l0 0 0 0z"/>
  <path class="fil6" d="M11729.31 17228.85c0,0 192.62,100.28 173.04,202.67 -19.58,102.39 -173.04,-202.67 -173.04,-202.67z"/>
  <path class="fil6" d="M11562.62 17277.53c0,0 293.95,381.26 254,506.94 -39.95,125.68 -254,-506.94 -254,-506.94z"/>
  <path class="fil6" d="M14713.53 17340.76c0,0 -145.52,119.86 -141.55,218.81m141.55 -218.81l0 0 0 0z"/>
  <path class="fil6" d="M11353.34 19702.69c0,0 0,112.45 208.23,277.81m-208.23 -277.81l0 0 0 0z"/>
  <path class="fil6" d="M15028.65 19438.11c0,0 -22.23,233.89 -224.9,355.07m224.9 -355.07l0 0 0 0z"/>
  <path class="fil6" d="M12530.72 11499.59c0,-18.26 -3.18,-37.04 -4.76,-55.56 -1.19,14.73 -1.84,29.58 -1.84,44.37 0,25.67 1.89,51.47 5.54,76.81 1.1,-13.49 1.7,-27.22 1.7,-40.77 0,-8.25 -0.24,-16.68 -0.6,-24.87l-0.04 0.02z"/>
  <path class="fil6" d="M12488.66 12238.83c3.97,-76.73 -62.71,-138.38 -82.02,-211.67 -0.98,-3.55 -1.7,-7.19 -2.12,-10.85 -2.67,13.29 -4.04,26.87 -4.04,40.44 0,16.76 2.09,33.55 6.18,49.78 15.61,60.59 62.71,112.45 77.52,171.19 1.3,-13.75 3.95,-26.19 4.48,-38.89z"/>
  <path class="fil6" d="M14339.15 11908.37c-22.78,44.96 -55.07,84.66 -94.47,116.14 -61.65,56.89 -138.11,118 -219.87,99.48 -121.44,-26.46 -163.25,-211.67 -287.07,-224.37 -123.82,-12.7 -206.11,158.75 -331.26,155.31 -52.92,-1.32 -100.54,-35.98 -149.23,-60.06 -85.2,-42.07 -225.16,-67.73 -317.5,-35.98 -138.38,47.36 -185.21,175.42 -274.11,277.28 -33.11,37.87 -72.56,69.96 -116.37,94.7 -8.9,5.87 -19.28,9.1 -29.91,9.28 -13.53,-1.82 -24.95,-10.99 -29.64,-23.81l0 1.85c-3.06,19.57 -4.8,39.5 -5,59.29 0.28,20.37 14.68,37.85 34.64,42.05 10.63,-0.19 21.01,-3.42 29.89,-9.27 43.83,-24.75 83.28,-56.84 116.41,-94.72 89.43,-101.86 135.73,-229.92 274.11,-277.28 93.4,-31.75 233.36,-6.09 317.5,35.98 48.68,24.08 95.25,58.74 149.23,60.06 125.15,3.18 206.9,-169.07 331.26,-155.31 124.36,13.76 165.63,196.85 287.07,224.37 81.76,18.52 158.75,-42.6 219.87,-99.48 39.38,-31.48 71.67,-71.18 94.45,-116.17 9.88,-25.58 14.95,-52.87 14.95,-80.32 0,-13.33 -1.2,-26.66 -3.57,-39.78 -2.24,13.95 -6.08,27.66 -11.38,40.74l0 0.02z"/>
  <path class="fil6" d="M10709.61 20751.23c0,0 216.16,-66.68 305.86,59.8m-305.86 -59.8l0 0 0 0z"/>
  <path class="fil6" d="M15717.36 20777.69c0,0 -357.98,-20.9 -343.96,75.94m343.96 -75.94l0 0 0 0z"/>
  <path class="fil0" d="M23577.02 20461.25c0,-66.48 -319.01,-120.38 -712.52,-120.38 -393.51,0 -712.52,53.9 -712.52,120.38 0,66.48 319.01,120.38 712.52,120.38 393.51,0 712.52,-53.9 712.52,-120.38z"/>
  <path class="fil0" d="M3122.72 21449.19c0,-66.48 -319.01,-120.38 -712.52,-120.38 -393.51,0 -712.52,53.9 -712.52,120.38 0,66.48 319.01,120.38 712.52,120.38 393.51,0 712.52,-53.9 712.52,-120.38z"/>
  <path class="fil0" d="M5878.86 22095.04c0,-66.48 -319.01,-120.38 -712.52,-120.38 -393.51,0 -712.52,53.9 -712.52,120.38 0,66.48 319.01,120.38 712.52,120.38 393.51,0 712.52,-53.9 712.52,-120.38z"/>
  <ellipse class="fil1" cx="21304.8" cy="21751.35" rx="1063.89" ry="179.91"/>
  <path class="fil1" d="M21744.8 21457.13c48.45,-39.61 83.86,-93.13 101.33,-153.2 13.23,-60.59 -12.7,-132.29 -70.91,-155.84 -65.09,-24.87 -134.67,20.37 -187.33,65.88 -52.66,45.51 -113.24,97.63 -182.3,87.84 58.12,-52.54 91.29,-127.32 91.29,-205.65 0,-18.08 -1.79,-36.22 -5.28,-53.93 -3.12,-19.47 -11.44,-37.77 -24.09,-52.9 -35.98,-38.63 -101.6,-22.23 -144.73,8.47 -137.58,96.57 -175.95,283.63 -176.74,451.64 -14.02,-60.59 -2.12,-123.83 -2.65,-185.21 -0.53,-61.38 -17.2,-132.29 -69.85,-164.84 -30.52,-16.34 -64.68,-24.96 -99.33,-24.96 -2.15,0 -4.36,0.05 -6.49,0.1 -61.91,-2.38 -130.7,3.97 -173.04,49.21 -52.92,56.09 -38.63,150.28 6.88,211.67 45.51,61.39 115.09,100.81 179.12,143.4 51.18,30.49 94.93,72.3 127.78,121.97 3.98,6.94 7.17,14.33 9.54,21.96l386.56 0.02c86.94,-44.05 168.11,-100.02 240.27,-165.67l-0.03 0.04z"/>
  <path class="fil1" d="M5203.13 19136.48c0,0 145.52,190.24 -66.94,476.25 -212.46,286.01 -387.61,529.17 -317.5,708.29 0,0 320.68,-533.14 582.08,-540.54 261.4,-7.4 89.43,-323.32 -197.64,-644z"/>
  <path class="fil6" d="M5203.13 19136.48c12.67,18.36 22.71,38.58 29.64,59.77 254.53,298.98 390.26,578.11 145.52,584.99 -227.81,6.61 -501.12,414.07 -566.74,517 2.12,7.94 4.76,15.61 7.67,23.55 0,0 320.68,-533.14 582.08,-540.54 261.4,-7.4 88.9,-324.09 -198.17,-644.77z"/>
  <path class="fil13" d="M5473.27 19378.84c0,66.94 -7.41,121.18 -16.67,121.18 -9.26,0 -16.67,-54.24 -16.67,-121.18 0,-66.94 9.26,-35.45 18.52,-35.45 9.26,0 14.82,-31.49 14.82,35.45z"/>
  <path class="fil13" d="M5566.13 19458.74c-58.74,32.01 -110.07,51.33 -114.3,43.13 -4.23,-8.2 39.42,-40.75 98.16,-72.76 58.74,-32.01 35.72,-8.73 39.95,0 4.23,8.73 34.92,-2.38 -23.81,29.63z"/>
  <path class="fil1" d="M4435.57 19136.48c0,0 -145.52,190.24 66.94,476.25 212.46,286.01 387.61,529.17 317.5,708.29 0,0 -320.41,-533.14 -582.08,-540.54 -261.67,-7.4 -89.96,-323.32 197.64,-644z"/>
  <path class="fil6" d="M4435.57 19136.48c-12.67,18.39 -22.79,38.57 -29.88,59.79 -254.53,298.98 -390,578.11 -145.52,584.99 228.07,6.61 501.39,414.07 567,517 -2.15,7.96 -4.83,15.89 -7.94,23.53 -3.11,7.64 -320.41,-533.14 -582.08,-540.54 -261.67,-7.4 -89.18,-324.09 198.42,-644.77z"/>
  <path class="fil13" d="M4165.17 19378.84c0,66.94 7.67,121.18 16.93,121.18 9.26,0 16.67,-54.24 16.67,-121.18 0,-66.94 -9.26,-35.45 -18.52,-35.45 -9.26,0 -15.08,-31.49 -15.08,35.45z"/>
  <path class="fil13" d="M4072.56 19458.74c58.74,32.01 109.8,51.33 114.3,43.13 4.5,-8.2 -39.69,-40.75 -98.43,-72.76 -58.74,-32.01 -35.45,-8.73 -39.95,0 -4.5,8.73 -34.65,-2.38 24.08,29.63z"/>
  <path class="fil14" d="M4211.47 20296.94c0,0 406.4,-12.7 529.17,-99.75 122.77,-87.05 625.21,-191.56 655.37,-51.59 30.16,139.97 610.92,695.59 152.14,699.29 -458.78,3.7 -1066.27,-71.44 -1188.5,-145.79 -122.24,-74.35 -148.17,-402.16 -148.17,-402.16z"/>
  <path class="fil15" d="M5556.08 20796.21c-458.79,3.7 -1066.27,-71.44 -1188.5,-145.79 -92.87,-56.89 -130.18,-260.35 -142.61,-354.01l-13.49 0c0,0 26.46,327.55 147.9,402.17 121.44,74.62 729.72,149.49 1188.5,145.79 132.29,0 178.06,-48.15 175.68,-118 -18.52,42.85 -69.05,69.05 -167.48,69.84z"/>
 </g>
</svg>
