<?xml version="1.0" encoding="UTF-8"?>
<!DOCTYPE svg PUBLIC "-//W3C//DTD SVG 1.1//EN" "http://www.w3.org/Graphics/SVG/1.1/DTD/svg11.dtd">
<!-- Creator: CorelDRAW 2021 (64-Bit) -->
<svg xmlns="http://www.w3.org/2000/svg" xml:space="preserve" width="184.679mm" height="184.679mm" version="1.1" style="shape-rendering:geometricPrecision; text-rendering:geometricPrecision; image-rendering:optimizeQuality; fill-rule:evenodd; clip-rule:evenodd"
viewBox="0 0 18467.92 18467.92"
 xmlns:xlink="http://www.w3.org/1999/xlink"
 xmlns:xodm="http://www.corel.com/coreldraw/odm/2003">
 <defs>
  <style type="text/css">
   <![CDATA[
    .fil3 {fill:#333333;fill-rule:nonzero}
    .fil2 {fill:#4FD8FE;fill-rule:nonzero}
    .fil1 {fill:whitesmoke;fill-rule:nonzero}
    .fil5 {fill:#FDB797;fill-rule:nonzero}
    .fil4 {fill:black;fill-rule:nonzero;fill-opacity:0.101961}
    .fil0 {fill:url(#id2);fill-rule:nonzero}
   ]]>
  </style>
   <mask id="id0">
  <linearGradient id="id1" gradientUnits="userSpaceOnUse" x1="9233.95" y1="18467.92" x2="9233.95" y2="0.01">
   <stop offset="0" style="stop-opacity:0.25098; stop-color:white"/>
   <stop offset="0.541176" style="stop-opacity:0.121569; stop-color:white"/>
   <stop offset="1" style="stop-opacity:0.101961; stop-color:white"/>
  </linearGradient>
    <rect style="fill:url(#id1)" x="-0.26" y="-0.25" width="18468.43" height="18468.43"/>
   </mask>
  <linearGradient id="id2" gradientUnits="userSpaceOnUse" x1="9233.95" y1="18467.92" x2="9233.95" y2="0.01">
   <stop offset="0" style="stop-opacity:1; stop-color:gray"/>
   <stop offset="0.541176" style="stop-opacity:1; stop-color:gray"/>
   <stop offset="1" style="stop-opacity:1; stop-color:gray"/>
  </linearGradient>
 </defs>
 <g id="Layer_x0020_1">
  <metadata id="CorelCorpID_0Corel-Layer"/>
  <path class="fil0" style="mask:url(#id0)" d="M18467.92 9233.97c0,-5085.89 -4148.07,-9233.97 -9233.97,-9233.97 -5085.88,0 -9233.95,4148.07 -9233.95,9233.97 0,5085.88 4148.07,9233.95 9233.95,9233.95 5085.89,0 9233.97,-4148.07 9233.97,-9233.95z"/>
  <circle class="fil1" cx="9251.95" cy="9174.96" r="9039.22"/>
  <path class="fil2" d="M9260.42 18249.91c4.73,-0.01 10.22,-0.01 14.61,-0.01 1760.51,0 3484.77,-518.38 4954.24,-1487.04 -333.11,-1820.33 -1600.73,-1924.05 -1600.73,-1924.05l-6990.53 0.09c0,0 -1196.18,98.16 -1569.77,1772.71 1514.32,1065.99 3324.62,1638.3 5176.66,1638.3 4.39,0 10.99,0 15.38,0l0.14 0z"/>
  <circle class="fil3" cx="9164.36" cy="8984.46" r="4362.98"/>
  <path class="fil4" d="M7756.25 12618.52l2795.59 0 0 2236.52c0,-0.01 0,-0.01 0,-0.01 0,771.68 -625.6,1397.62 -1397.27,1397.79l0 0.02c-771.83,-0.02 -1397.77,-625.96 -1397.77,-1397.81l-0.02 -2236.51 -0.53 0z"/>
  <path class="fil5" d="M7844.89 12514.8l2619.37 0c48.95,-0.01 88.64,39.68 88.64,88.63l0 2147.89c-0.01,-0.08 -0.01,0.26 -0.01,0.26 0,771.85 -625.94,1397.79 -1397.78,1397.79 -0.17,0 -0.34,0 -0.51,0l-0.03 0.01c-771.83,-0.01 -1397.77,-625.95 -1397.77,-1397.8l-0.02 -2148.14c0.01,-0.01 0.01,-0.01 0.01,-0.01 0,-48.74 39.37,-88.36 88.11,-88.64l-0.01 0.01z"/>
  <path class="fil4" d="M7761.28 13674.21c449.8,167.99 927.74,254.44 1408.15,254.44 473.03,0 944.1,-83.51 1387.67,-246.59l0 -343.96 -2795.82 -0.18 0 336.29z"/>
  <circle class="fil5" cx="9164.36" cy="9854.15" r="4007.11"/>
  <path class="fil4" d="M6310.04 6209.24c0,0 1688.84,3427.95 6452.66,1437.22l-1109.13 -1739.11 -1966.12 -705.64 -3377.41 1007.53z"/>
  <path class="fil3" d="M6310.04 6158.97c0,0 1688.84,3427.94 6452.66,1436.69l-1109.13 -1739.11 -1966.12 -705.64 -3377.41 1008.06z"/>
  <path class="fil3" d="M6295.22 5926.67c113.72,-352.16 310.98,-672.92 573.81,-933.2 788.19,-779.2 2080.42,-943.5 2743.2,-1831.98 158.75,246.59 35.98,625.74 -238.13,731.57 635,-4.23 1370.81,-59.8 1729.85,-582.08 63.56,147.9 96.48,307.69 96.48,468.79 0,289.13 -105.56,568.55 -296.67,785.33 562.77,26.46 1164.17,407.46 1199.62,969.7 24.34,374.65 -211.67,729.19 -518.32,944.03 -306.65,214.84 -680.24,313.53 -1046.69,394.23 -1070,236.3 -4941.38,1225.04 -4243.15,-946.39z"/>
  <ellipse class="fil5" cx="5155.66" cy="9850.45" rx="372.8" ry="699.03"/>
  <ellipse class="fil5" cx="13170.96" cy="9850.45" rx="372.8" ry="699.03"/>
 </g>
</svg>
